<?xml version="1.0" encoding="utf-8"?>
<!-- Generator: Adobe Illustrator 18.1.1, SVG Export Plug-In . SVG Version: 6.00 Build 0)  -->
<svg version="1.1" id="Layer_1" xmlns="http://www.w3.org/2000/svg" xmlns:xlink="http://www.w3.org/1999/xlink" x="0px" y="0px"
	 viewBox="0 0 50 50" enable-background="new 0 0 50 50" xml:space="preserve">
<rect fill="#F3F1F6" width="50" height="50"/>
<polygon fill="#D4CAED" points="12.9,24 14.8,23.1 18.9,16.1 31,16.1 35.6,23.3 37,24.8 37,28.8 35.5,29.9 31,36.9 18.9,36.9 
	14.1,29.5 12.6,28.6 "/>
<polygon fill="#FFFFFF" points="18.1,25.9 21.4,20.8 28.4,20.8 31.6,26.6 28.1,32.8 21.5,32.8 "/>
<g>
	<g>
		<path fill="#9D9BA1" d="M35.7,22.8l-3.4-5.6c-0.7-1.1-1.9-1.8-3.1-1.8h-0.5v-0.7c0-1.2-1-2.2-2.2-2.2h-2.9c-1.2,0-2.2,1-2.2,2.2
			v0.7h-0.5c-1.3,0-2.5,0.7-3.1,1.8l-3.4,5.6c-1,0.2-1.8,1.1-1.8,2.2v2.9c0,1.1,0.8,1.9,1.8,2.2l3.4,5.6c0.7,1.1,1.9,1.8,3.1,1.8
			h8.4c1.3,0,2.5-0.7,3.1-1.8l3.4-5.6c1-0.2,1.8-1.1,1.8-2.2V25C37.5,23.9,36.7,23.1,35.7,22.8z M22.8,14.7c0-0.4,0.3-0.7,0.7-0.7
			h2.9c0.4,0,0.7,0.3,0.7,0.7v0.7h-4.4V14.7z M36,27.9c0,0.4-0.3,0.7-0.7,0.7c-0.3,0-0.5,0.1-0.6,0.4l-3.6,6
			C30.7,35.6,30,36,29.2,36h-8.4c-0.8,0-1.5-0.4-1.9-1.1l-3.6-6c-0.1-0.2-0.4-0.4-0.6-0.4c-0.4,0-0.7-0.3-0.7-0.7v-0.7h3.7l3.3,5.5
			c0.1,0.2,0.4,0.4,0.6,0.4h6.7c0.3,0,0.5-0.1,0.6-0.4l3.3-5.5H36V27.9z M21.3,27.2v3.2l-1.9-3.2H21.3z M19.4,25.7l1.9-3.2v3.2H19.4
			z M24.3,27.2v4.4h-1.5v-4.4H24.3z M22.8,25.7v-4.4h1.5v4.4H22.8z M27.2,27.2v4.4h-1.5v-4.4H27.2z M25.7,25.7v-4.4h1.5v4.4H25.7z
			 M30.6,27.2l-1.9,3.2v-3.2H30.6z M28.7,25.7v-3.2l1.9,3.2H28.7z M36,25.7h-3.7L29,20.2c-0.1-0.2-0.4-0.4-0.6-0.4h-6.7
			c-0.3,0-0.5,0.1-0.6,0.4l-3.3,5.5H14V25c0-0.4,0.3-0.7,0.7-0.7c0.3,0,0.5-0.1,0.6-0.4l3.6-6c0.4-0.7,1.1-1.1,1.9-1.1
			c0.2,0,8.2,0,8.4,0c0.8,0,1.5,0.4,1.9,1.1l3.6,6c0.1,0.2,0.4,0.4,0.6,0.4c0.4,0,0.7,0.3,0.7,0.7V25.7z"/>
	</g>
</g>
</svg>
