<?xml version="1.0" encoding="utf-8"?>
<!-- Generator: Adobe Illustrator 18.1.1, SVG Export Plug-In . SVG Version: 6.00 Build 0)  -->
<svg version="1.1" id="Layer_1" xmlns="http://www.w3.org/2000/svg" xmlns:xlink="http://www.w3.org/1999/xlink" x="0px" y="0px"
	 viewBox="0 0 50 50" enable-background="new 0 0 50 50" xml:space="preserve">
<rect fill="#F3F1F6" width="50" height="50"/>
<g>
	<g>
		<path fill="#FFFFFF" d="M30.6,26c0.8-1.5,1.8-3.3,3.8-5.8l0,0c-0.5-0.9-1.1-1.8-1.9-2.6c-0.8-0.8-1.7-1.4-2.6-1.9l0,0
			c-2.5,2-4.3,3-5.8,3.8c-1.2,0.6-2.1,1.1-2.8,1.9c-1,1-1.6,2.4-1.6,3.8c0,1.4,0.5,2.7,1.6,3.8c1,1,2.4,1.6,3.8,1.6
			c1.4,0,2.7-0.5,3.8-1.6C29.5,28,30,27.1,30.6,26z"/>
		<path fill="#D4CAED" d="M21.2,21.2c0.8-0.8,1.7-1.2,2.8-1.9c1.5-0.8,3.3-1.8,5.8-3.8l0,0c-0.6-0.3-1.2-0.6-1.9-0.7l0,0
			c-2,1.5-3.5,2.3-4.8,3c-1.3,0.7-2.3,1.2-3.2,2.2c-1.4,1.4-2.1,3.2-2.1,5c0,1.8,0.7,3.6,2.1,5c1.4,1.4,3.2,2.1,5,2.1
			c1.8,0,3.6-0.7,5-2.1c0.9-0.9,1.5-1.9,2.2-3.2c0.7-1.2,1.5-2.8,3-4.8h0c-0.2-0.6-0.4-1.3-0.7-1.9l0,0c-2,2.5-3,4.3-3.8,5.8
			c-0.6,1.2-1.1,2.1-1.9,2.8c-1,1-2.4,1.6-3.8,1.6c-1.4,0-2.7-0.5-3.8-1.6c-1-1-1.6-2.4-1.6-3.8C19.7,23.6,20.2,22.3,21.2,21.2z"/>
		<path fill="#FFFFFF" d="M20,20c0.9-0.9,1.9-1.5,3.2-2.2c1.2-0.7,2.8-1.5,4.8-3l0,0c-3.6-1.1-7.6-0.2-10.5,2.7
			c-4.1,4.1-4.1,10.8,0,14.9c4.1,4.1,10.8,4.1,14.9,0c2.8-2.8,3.7-6.9,2.7-10.5l0,0c-1.5,2-2.3,3.5-3,4.8c-0.7,1.3-1.2,2.3-2.2,3.2
			c-1.4,1.4-3.2,2.1-5,2.1c-1.8,0-3.6-0.7-5-2.1c-1.4-1.4-2.1-3.2-2.1-5C18,23.2,18.6,21.4,20,20z"/>
	</g>
	<path fill="#9D9BA1" stroke="#9D9BA1" stroke-width="0.3" stroke-miterlimit="10" d="M32.8,17.2c-0.8-0.8-1.7-1.5-2.7-2
		c0,0-0.1,0-0.1,0c-0.6-0.3-1.2-0.6-1.9-0.7c0,0,0,0-0.1,0c-0.7-0.2-1.5-0.3-2.2-0.4c-2.6-0.2-5.2,0.5-7.3,2
		c-0.2,0.1-0.2,0.4-0.1,0.6c0.1,0.2,0.4,0.2,0.6,0.1c2.4-1.7,5.2-2.3,7.9-1.7c-1.6,1.2-2.9,1.9-4,2.4c-1.3,0.7-2.3,1.3-3.3,2.2
		c-1.4,1.4-2.2,3.3-2.2,5.3s0.8,3.9,2.2,5.3c1.4,1.4,3.3,2.2,5.3,2.2c1.4,0,2.7-0.4,3.8-1.1c0.2-0.1,0.3-0.4,0.1-0.6
		c-0.1-0.2-0.4-0.3-0.6-0.1c-1,0.6-2.2,0.9-3.4,0.9c-1.8,0-3.4-0.7-4.7-1.9c-1.2-1.2-1.9-2.9-1.9-4.7c0-1.8,0.7-3.4,1.9-4.7
		c0.9-0.9,1.8-1.4,3.1-2.1c1.2-0.7,2.7-1.5,4.6-2.9c0.3,0.1,0.6,0.2,1,0.4c-2.2,1.7-3.8,2.6-5.2,3.3c-1.2,0.6-2.1,1.1-2.9,1.9
		c-1.1,1.1-1.7,2.5-1.7,4.1c0,1.5,0.6,3,1.7,4.1c1.1,1.1,2.5,1.7,4.1,1.7c1.5,0,3-0.6,4.1-1.7c0.8-0.8,1.3-1.7,1.9-2.9
		c0.7-1.3,1.6-3,3.3-5.2c0.1,0.3,0.3,0.6,0.4,1c-1.4,1.9-2.2,3.4-2.9,4.6c-0.4,0.7-0.7,1.3-1.1,1.8c-0.1,0.2-0.1,0.5,0.1,0.6
		c0.1,0,0.2,0.1,0.2,0.1c0.1,0,0.3-0.1,0.4-0.2c0.4-0.6,0.7-1.2,1.1-1.9c0.6-1.1,1.3-2.3,2.4-4c0.6,3.2-0.3,6.7-2.8,9.2
		c-4,4-10.4,4-14.3,0c-3.5-3.5-4-9-1.1-13.1c0.1-0.2,0.1-0.5-0.1-0.6s-0.5-0.1-0.6,0.1c-1.5,2.1-2.2,4.7-2,7.3
		c0.2,2.6,1.3,5.1,3.2,6.9c2.1,2.1,4.8,3.2,7.8,3.2c2.9,0,5.7-1.1,7.8-3.2c2.1-2.1,3.2-4.8,3.2-7.8C36,22.1,34.9,19.3,32.8,17.2z
		 M30.3,25.7c-0.6,1.2-1.1,2-1.8,2.7c-0.9,0.9-2.2,1.4-3.5,1.4c-1.3,0-2.5-0.5-3.5-1.4c-0.9-0.9-1.4-2.2-1.4-3.5
		c0-1.3,0.5-2.5,1.4-3.5c0.7-0.7,1.6-1.2,2.7-1.8c1.4-0.8,3.2-1.7,5.6-3.6c0.8,0.5,1.6,1,2.3,1.7c0.7,0.7,1.3,1.5,1.7,2.3
		C32,22.5,31,24.3,30.3,25.7z"/>
	<path fill="#9D9BA1" stroke="#9D9BA1" stroke-width="0.3" stroke-miterlimit="10" d="M17.5,18c0.1,0,0.2,0,0.3-0.1l0,0
		c0.2-0.2,0.2-0.4,0.1-0.6s-0.4-0.2-0.6-0.1s-0.2,0.4-0.1,0.6C17.3,17.9,17.4,18,17.5,18z"/>
	<path fill="#9D9BA1" stroke="#9D9BA1" stroke-width="0.3" stroke-miterlimit="10" d="M30,30.4c0.1,0,0.2-0.1,0.3-0.2l0,0
		c0.2-0.2,0.1-0.5-0.1-0.6c-0.2-0.2-0.5-0.1-0.6,0.1c-0.2,0.2-0.1,0.5,0.1,0.6C29.8,30.4,29.9,30.4,30,30.4z"/>
</g>
<g display="none">
	<path display="inline" fill="#FFFFFF" stroke="#9D9BA1" stroke-width="1.2" stroke-miterlimit="10" d="M26.6,25
		c0-3.3,1.6-6.2,4.1-7.9c-1.6-1.2-3.6-1.9-5.7-1.9s-4.1,0.7-5.7,1.9c2.5,1.8,4.1,4.6,4.1,7.9s-1.6,6.2-4.1,7.9
		c1.6,1.2,3.6,1.9,5.7,1.9s4.1-0.7,5.7-1.9C28.2,31.2,26.6,28.3,26.6,25z"/>
	<path display="inline" fill="#FFFFFF" stroke="#9D9BA1" stroke-width="1.2" stroke-miterlimit="10" d="M23.4,25
		c0-3.3-1.6-6.2-4.1-7.9c-2.5,1.8-4.1,4.6-4.1,7.9s1.6,6.2,4.1,7.9C21.8,31.2,23.4,28.3,23.4,25z"/>
	<path display="inline" fill="#FFFFFF" stroke="#9D9BA1" stroke-width="1.2" stroke-miterlimit="10" d="M34.8,25
		c0-3.3-1.6-6.2-4.1-7.9c-2.5,1.8-4.1,4.6-4.1,7.9s1.6,6.2,4.1,7.9C33.2,31.2,34.8,28.3,34.8,25z"/>
</g>
</svg>
