<?xml version="1.0" encoding="utf-8"?>
<!-- Generator: Adobe Illustrator 18.1.1, SVG Export Plug-In . SVG Version: 6.00 Build 0)  -->
<svg version="1.1" id="Layer_1" xmlns="http://www.w3.org/2000/svg" xmlns:xlink="http://www.w3.org/1999/xlink" x="0px" y="0px"
	 viewBox="0 0 100 100" enable-background="new 0 0 100 100" xml:space="preserve">
<g>
	<path fill="#DCCCFF" d="M14.6,90.8h70.7c8.1,0,14.6-6.6,14.6-14.6V29.2c0-8.1-6.6-14.6-14.6-14.6H14.6C6.6,14.6,0,21.2,0,29.2v46.9
		C0,84.2,6.6,90.8,14.6,90.8z"/>
	<path fill="#5E38B5" d="M14.6,90.8h70.7c8.1,0,14.6-6.6,14.6-14.6V29.2c0-8.1-6.6-14.6-14.6-14.6H14.6C6.6,14.6,0,21.2,0,29.2v46.9
		C0,84.2,6.6,90.8,14.6,90.8z M5.9,29.2c0-4.8,3.9-8.8,8.8-8.8h70.7c4.8,0,8.8,3.9,8.8,8.8v46.9c0,4.8-3.9,8.8-8.8,8.8H14.6
		c-4.8,0-8.8-3.9-8.8-8.8V29.2z"/>
	<path fill="#FFFFFF" d="M35.4,38.1v29.5c0,2.3,2.5,3.7,4.5,2.6l26.2-15c2-1.2,2-4.1,0-5.2L39.8,35.5C37.8,34.4,35.4,35.9,35.4,38.1
		z"/>
	<path fill="#5E38B5" d="M35.4,38.1v29.5c0,2.3,2.5,3.7,4.5,2.6l26.2-15c2-1.2,2-4.1,0-5.2L39.8,35.5C37.8,34.4,35.4,35.9,35.4,38.1
		z M41.2,43l17.5,9.7l-17.5,10V43z"/>
</g>
</svg>
