<?xml version="1.0" encoding="utf-8"?>
<!-- Generator: Adobe Illustrator 18.1.1, SVG Export Plug-In . SVG Version: 6.00 Build 0)  -->
<svg version="1.1" id="Layer_1" xmlns="http://www.w3.org/2000/svg" xmlns:xlink="http://www.w3.org/1999/xlink" x="0px" y="0px"
	 viewBox="0 0 100 100" enable-background="new 0 0 100 100" xml:space="preserve">
<g>
	<path fill="#FFFFFF" d="M97.5,16h-95C1.1,16,0,17.1,0,18.5v65C0,84.9,1.1,86,2.5,86h95c1.4,0,2.5-1.1,2.5-2.5v-65
		C100,17.1,98.9,16,97.5,16z"/>
	<path fill="#DCCCFF" d="M2.5,18.5v62l22.5-27l10,12l28.2-37l34.4,45.1V18.5L2.5,18.5z M25,46c-4.1,0-7.5-3.4-7.5-7.5S20.9,31,25,31
		s7.5,3.4,7.5,7.5C32.5,42.6,29.1,46,25,46z"/>
	<path fill="#DCCCFF" d="M2.5,18.5v62l22.5-27l10,12l28.2-37l34.4,45.1V18.5L2.5,18.5z M25,46c-4.1,0-7.5-3.4-7.5-7.5S20.9,31,25,31
		s7.5,3.4,7.5,7.5C32.5,42.6,29.1,46,25,46z"/>
	<path fill="#5E38B5" d="M97.5,16h-95C1.1,16,0,17.1,0,18.5v65C0,84.9,1.1,86,2.5,86h95c1.4,0,2.5-1.1,2.5-2.5v-65
		C100,17.1,98.9,16,97.5,16z M5.3,81L25,57.4l8.1,9.7c0,0,0,0,0,0L44.7,81H5.3z M95,81H51.2l-13-15.6l25-32.8L95,74.5V81z M95,66.2
		L65.1,27c-0.8-1.1-2.4-1.3-3.5-0.5c-0.2,0.1-0.3,0.3-0.5,0.5L34.9,61.5l-8-9.6c-0.9-1.1-2.5-1.2-3.5-0.3c-0.1,0.1-0.2,0.2-0.3,0.3
		L5,73.6V21h90V66.2z"/>
	<path fill="#5E38B5" d="M25,48.5c5.5,0,10-4.5,10-10s-4.5-10-10-10s-10,4.5-10,10C15,44,19.5,48.5,25,48.5z M25,33.5
		c2.8,0,5,2.2,5,5c0,2.8-2.2,5-5,5s-5-2.2-5-5C20,35.7,22.2,33.5,25,33.5z"/>
</g>
</svg>
